<svg id="Layer_1" data-name="Layer 1" xmlns="http://www.w3.org/2000/svg" viewBox="0 0 300 300"><defs><style>.cls-1{fill:#0d4398;}.cls-2{fill:#fff;}</style></defs><title>Artboard 1 copy</title><path class="cls-1" d="M281,131C281,58.85,222.12,0,150,0S19,58.85,19,131h0c0,55.39,36.34,106.16,89.42,124a100.29,100.29,0,0,1-10.38,16.73h-5.2a5.17,5.17,0,0,0-5.19,5.19v17.89A5.17,5.17,0,0,0,92.88,300H206.54a5.17,5.17,0,0,0,5.19-5.19V276.92a5.17,5.17,0,0,0-5.19-5.19h-4.62A50.83,50.83,0,0,1,191.54,255,131.34,131.34,0,0,0,281,131ZM37.5,173.65h4a5.19,5.19,0,0,0,0-10.38H34a106.17,106.17,0,0,1-4-27.12H42.12a5.19,5.19,0,1,0,0-10.38H30a139.93,139.93,0,0,1,4-27.12h7.5a5.19,5.19,0,0,0,0-10.38h-4a120.19,120.19,0,0,1,225,0h-4a5.19,5.19,0,1,0,0,10.38H266a106.24,106.24,0,0,1,4,27.12H257.88a5.19,5.19,0,1,0,0,10.38H270a139.82,139.82,0,0,1-4,27.12h-7.5a5.19,5.19,0,1,0,0,10.38h4a119.93,119.93,0,0,1-75,71.54c-2.88-8.65-3.46-17.88-2.88-27.11a94,94,0,1,0-69.24,0,71.48,71.48,0,0,1-3.46,27.11C77.31,233.65,50.19,206.54,37.5,173.65Zm173.65,0a5.19,5.19,0,1,0,0-10.38H88.27a5.19,5.19,0,0,0,0,10.38h9.81c8.07,9.23,13.27,20.77,16.15,32.31a83.52,83.52,0,1,1,120-75c0,32.31-19,61.73-47.31,75,2.31-12.11,8.08-23.08,15.58-32.31Zm-9.8,116H98.65v-7.5H201.92v7.5Zm-90-17.89a87,87,0,0,0,0-98.08h76.73a87,87,0,0,0,0,98.08Z"/><path class="cls-1" d="M152.33,153.41a41.9,41.9,0,1,0-41.9-41.9A41.79,41.79,0,0,0,152.33,153.41Z"/><path class="cls-2" d="M141.92,112.28a4.56,4.56,0,1,0-6.45,6.45l13.63,13.63a4.48,4.48,0,0,0,1.5,1,4.58,4.58,0,0,0,3.45,0,4.48,4.48,0,0,0,1.5-1l13.63-13.63,0,0a4.55,4.55,0,0,0,0-6.43l0,0a4.56,4.56,0,0,0-6.43,0l-5.86,5.91V97.33a4.55,4.55,0,0,0-9.09,0v20.86l-5.86-5.91Z"/></svg>