<svg id="Layer_1" data-name="Layer 1" xmlns="http://www.w3.org/2000/svg" viewBox="0 0 300 300"><defs><style>.cls-1{fill:#0d4398;}</style></defs><title>Artboard 1 copy 2</title><path class="cls-1" d="M265.63,121.25c-3.13-11.25-7.51-22.5-13.76-32.5L270,65.63c1.88-2.5,1.88-6.25-.62-8.13L243.13,31.25a5.89,5.89,0,0,0-8.13-.62L211.88,48.75c-10-6.25-21.25-10.62-32.5-13.75-5-22.5-1.25-35-10.63-35-30,1.88-42.5-3.75-43.75,5.63L121.25,35c-11.25,3.13-22.5,7.5-32.5,13.75-18.75-12.5-25-24.37-31.87-17.5-20,22.5-33.13,27.5-26.88,35L48.13,89.38c-6.25,10-10.63,21.25-13.75,32.5L5.63,125c-9.38,1.25-3.75,13.75-5.63,43.75,0,9.38,13.13,5.62,35,10,3.13,11.25,7.5,22.5,13.75,32.5-12.5,18.75-24.37,25-17.5,31.87,22.5,20,27.5,33.13,35,26.88l23.13-18.13c10,6.25,21.25,10.63,32.5,13.75,3.75,21.88,0,34.38,9.37,34.38,30-1.87,42.5,3.75,43.75-5.63L178.75,265c11.25-3.13,22.5-7.5,32.5-13.75,18.75,12.5,25,24.37,31.87,17.5,20-22.5,33.13-27.5,26.88-35l-18.13-23.13c6.25-10,10.63-21.25,13.75-32.5,21.88-3.75,34.38,0,34.38-9.37v-37.5C300,121.88,287.5,125.63,265.63,121.25Zm21.87,41.88c-22.5,3.75-31.87,1.25-33.75,8.75a97,97,0,0,1-15,36.24,8,8,0,0,0,0,7.51l17.5,22.49L237.5,256.87c-18.75-13.12-23.13-21.87-30-17.5a101.59,101.59,0,0,1-36.25,15c-7.5,1.25-4.38,10-8.75,33.75H136.25L132.5,260c-1.25-9.37-13.13-1.87-41.25-20.62-6.25-4.38-10,4.37-30,17.5L42.5,238.13c13.75-19.38,21.87-23.13,17.5-30-18.75-28.13-11.25-40-20.63-41.25L12.5,163.13V136.88l28.13-3.75c2.5-.63,5-2.5,5.62-5a97.09,97.09,0,0,1,15-36.25,8,8,0,0,0,0-7.5l-17.5-22.5L62.5,43.13,85,60.63c1.88,1.87,5,1.87,7.5,0,28.13-18.75,40-11.25,41.25-20.63l3.12-27.5h26.25c3.75,22.5,1.25,31.88,8.75,33.75,32.5,6.88,36.25,20.63,43.76,15l22.49-17.5L256.87,62.5c-13.75,19.37-21.87,23.12-17.5,30,18.75,28.12,11.25,40,20.63,41.25l28.12,3.75v25.63Z"/><path class="cls-1" d="M150,62.5A87.75,87.75,0,0,0,62.5,150c0,68.13,75.63,110,133.12,74.38h0a90.2,90.2,0,0,0,28.75-28.75C260,138.13,218.75,62.5,150,62.5Zm43.75,148.75-19.38-19.37h0c-.62-.63-1.25-.63-1.87-1.25H170a4.75,4.75,0,0,0-2.5.62A50.94,50.94,0,0,1,148.12,195a44.84,44.84,0,0,1-28.75-12.5c-10-10-15-24.38-11.87-38.75l30,30a6,6,0,0,0,8.75,0c18.75-21.25,34.37-27.5,26.25-35.63l-30-30c33.75-6.25,61.87,28.13,48.13,60a5.69,5.69,0,0,0,1.25,6.88l19.37,19.37C206.25,200,200.62,206.25,193.75,211.25ZM217.5,182.5l-14.37-14.37c15.62-45.63-30.63-88.75-75-70-1.88.62-3.13,2.5-3.76,4.37-1.25,5.63,3.13,5.63,35,38.75l-17.5,17.5-33.13-33.12c-12.5-12.5-26.87,35,1.88,63.75a56.92,56.92,0,0,0,42.5,16.25,46.27,46.27,0,0,0,15.62-3.13l14.37,14.38C132.5,241.25,75,205,75,150a75.22,75.22,0,0,1,75-75C205,75,241.88,132.5,217.5,182.5Z"/></svg>